<svg width="300" height="190" viewBox="0 0 300 190" fill="none" xmlns="http://www.w3.org/2000/svg" role="img" aria-labelledby="title desc">
  <title id="title">Maker Express mark</title>
  <desc id="desc">Minimal M.E monogram with split-nozzle M and PCB E with aligned internal holes.</desc>
  <defs>
    <mask id="mxMark-m-split" maskUnits="userSpaceOnUse">
      <rect width="300" height="190" fill="white" />
      <path d="M 109 94 L 109 151" stroke="black" stroke-width="5.5" stroke-linecap="round" />
    </mask>
    <mask id="mxMark-e-cutouts" maskUnits="userSpaceOnUse">
      <rect width="300" height="190" fill="white" />
      <circle cx="232" cy="35" r="8.2" fill="black" />
      <circle cx="232" cy="93" r="8.2" fill="black" />
      <circle cx="232" cy="151" r="11.5" fill="black" />
      <circle cx="283" cy="35" r="7.4" fill="black" />
      <circle cx="283" cy="93" r="7.4" fill="black" />
      <rect x="275" y="143" width="16" height="16" rx="3" fill="black" />
    </mask>
  </defs>
  <path d="M 22 148 L 22 34 C 22 24 29 18 39 18 L 57 18 C 64 18 70 22 73 28 L 101 91 C 104 98 113 98 116 91 L 144 28 C 147 22 153 18 160 18 L 178 18 C 188 18 195 24 195 34 L 195 148 C 195 158 188 164 178 164 L 160 164 C 150 164 144 158 144 148 L 144 89 L 121 135 L 116 151 L 102 151 L 97 135 L 74 89 L 74 148 C 74 158 67 164 58 164 L 39 164 C 29 164 22 158 22 148 Z" fill="#332016" mask="url(#mxMark-m-split)" />
  <g mask="url(#mxMark-e-cutouts)">
    <path d="M 232 35 L 232 151" stroke="#b43e0a" stroke-width="34" stroke-linecap="round" stroke-linejoin="round" />
    <path d="M 232 35 L 283 35" stroke="#b43e0a" stroke-width="34" stroke-linecap="round" stroke-linejoin="round" />
    <path d="M 232 93 L 283 93" stroke="#b43e0a" stroke-width="34" stroke-linecap="round" stroke-linejoin="round" />
    <path d="M 232 151 L 283 151" stroke="#b43e0a" stroke-width="34" stroke-linecap="round" stroke-linejoin="round" />
  </g>
</svg>