<svg width="640" height="150" viewBox="0 0 640 150" fill="none" xmlns="http://www.w3.org/2000/svg" role="img" aria-labelledby="title desc"><title id="title">Hardstack.xyz logo</title><desc id="desc">Hardstack.xyz horizontal lockup with a stacked-plane mark and readable dot xyz suffix.</desc><style>.word{fill:#292524;font-family:"Avenir Next","Neue Haas Grotesk Text","Helvetica Neue",Arial,sans-serif;font-weight:840;letter-spacing:-.052em}.domain{fill:#b43e0a;font-family:"JetBrains Mono","SF Mono",Menlo,monospace;font-weight:820;letter-spacing:-.025em}</style><g transform="translate(42 52) scale(1.2)"><path d="M 0 56 L 40 76 L 80 56 L 40 36 Z" fill="#b43e0a" opacity=".38"/><path d="M 0 56 L 40 76 L 40 64 L 0 44 Z" fill="#b43e0a" opacity=".58"/><path d="M 80 56 L 40 76 L 40 64 L 80 44 Z" fill="#b43e0a" opacity=".78"/><path d="M 0 28 L 40 48 L 80 28 L 40 8 Z" fill="#b43e0a" opacity=".58"/><path d="M 0 28 L 40 48 L 40 36 L 0 16 Z" fill="#b43e0a" opacity=".78"/><path d="M 80 28 L 40 48 L 40 36 L 80 16 Z" fill="#b43e0a" opacity=".96"/><path d="M 0 0 L 40 20 L 80 0 L 40 -20 Z" fill="#292524" opacity=".96"/><path d="M 0 0 L 40 20 L 40 8 L 0 -12 Z" fill="#292524" opacity=".72"/><path d="M 80 0 L 40 20 L 40 8 L 80 -12 Z" fill="#292524" opacity=".52"/></g><text class="word" x="156" y="96" font-size="70">hardstack</text><text class="domain" x="506" y="96" font-size="34">.xyz</text></svg>
