<svg width="120" height="120" viewBox="0 0 120 120" fill="none" xmlns="http://www.w3.org/2000/svg" role="img" aria-labelledby="title desc"><title id="title">Hardstack mark</title><desc id="desc">Three aligned isometric stacked planes for hardstack.xyz.</desc><g transform="translate(20 28)"><path d="M 0 56 L 40 76 L 80 56 L 40 36 Z" fill="#b43e0a" opacity=".35"/><path d="M 0 56 L 40 76 L 40 64 L 0 44 Z" fill="#b43e0a" opacity=".55"/><path d="M 80 56 L 40 76 L 40 64 L 80 44 Z" fill="#b43e0a" opacity=".75"/><path d="M 0 28 L 40 48 L 80 28 L 40 8 Z" fill="#b43e0a" opacity=".55"/><path d="M 0 28 L 40 48 L 40 36 L 0 16 Z" fill="#b43e0a" opacity=".75"/><path d="M 80 28 L 40 48 L 40 36 L 80 16 Z" fill="#b43e0a" opacity=".95"/><path d="M 0 0 L 40 20 L 80 0 L 40 -20 Z" fill="#292524" opacity=".95"/><path d="M 0 0 L 40 20 L 40 8 L 0 -12 Z" fill="#292524" opacity=".7"/><path d="M 80 0 L 40 20 L 40 8 L 80 -12 Z" fill="#292524" opacity=".5"/></g></svg>